<?xml version="1.0" encoding="utf-8"?>
<!-- Generator: Adobe Illustrator 24.0.2, SVG Export Plug-In . SVG Version: 6.00 Build 0)  -->
<svg version="1.1" xmlns="http://www.w3.org/2000/svg" xmlns:xlink="http://www.w3.org/1999/xlink" x="0px" y="0px"
	 viewBox="0 0 1000 1200" style="enable-background:new 0 0 1000 1200;" xml:space="preserve">
<style type="text/css">
	.st0{display:none;}
	.st1{fill:#96C1E2;}
	.st2{fill:#B8E994;}
	.st3{fill:#47B254;}
	.st4{fill:none;stroke:#47B254;stroke-width:6;stroke-linejoin:round;stroke-miterlimit:10;}
	.st5{fill:#E2DBFF;}
	.st6{fill:none;}
	.st7{fill:#AEA5E6;}
	.st8{fill:#4689B7;}
	.st9{fill:#539EDB;}
	.st10{fill:#EBF7FF;}
	.st11{fill:#DADD52;stroke:#DBC153;stroke-width:2;stroke-miterlimit:10;}
	.st12{fill:#2E473A;}
</style>
<g id="Layer_6">
	<rect class="st0" width="1000" height="1200"/>
	<g>
		<path class="st1" d="M815.4,326.5l-684.9,79.1c69.9-132.6,209.2-223,369.5-223C625.9,182.5,738.9,238.3,815.4,326.5z"/>
		<path class="st1" d="M184.5,873.4l685.1-79.1C799.7,927,660.4,1017.5,500,1017.5C374,1017.5,261,961.7,184.5,873.4z"/>
	</g>
	<g>
		<path class="st2" d="M84.3,561.3l20.9,34l-22.1,28.2c-0.4-7.7-0.7-15.5-0.7-23.4C82.5,586.9,83.1,574,84.3,561.3z"/>
		<path class="st2" d="M204.5,468.5l-92.7,118.4l-25.7-41.7c2.9-22.1,7.5-43.7,13.8-64.6L204.5,468.5z"/>
		<path class="st2" d="M110.8,604.3l118.7,192.5l-91.9,10.6c-29.1-50.7-47.8-108-53.3-169.1L110.8,604.3z"/>
		<polygon class="st2" points="300,788.6 240.4,795.5 117.4,595.9 218.4,466.9 229.6,465.6 		"/>
		<polygon class="st2" points="411.4,444.6 316.1,786.8 310,787.5 239.6,464.4 		"/>
		<polygon class="st2" points="526.7,583.1 465.1,769.6 326.8,785.5 422.2,443.3 450.4,440.1 		"/>
		<polygon class="st2" points="616.7,752.1 476,768.3 533.2,595.3 		"/>
		<polygon class="st2" points="578.8,425.3 531,570 461.1,438.8 		"/>
		<polygon class="st2" points="649.9,417 704.1,457.8 643.8,748.9 627.4,750.8 537.5,582.2 589.8,424 		"/>
		<polygon class="st2" points="714.1,409.6 706.4,447 664.3,415.4 		"/>
		<polygon class="st2" points="769.3,494.3 715.2,453.6 724.6,408.4 733.2,407.4 		"/>
		<polygon class="st2" points="864.4,723.5 654.3,747.7 713,464.5 776.8,512.5 		"/>
		<path class="st2" d="M792.6,524.3L917.1,618c-1.5,35.1-7.3,69-16.9,101.4l-25.5,2.9L792.6,524.3z"/>
		<path class="st2" d="M917.5,600c0,1.9,0,3.8,0,5.7L785,506.1l-41.5-99.9l118.8-13.7C897.4,453.6,917.5,524.5,917.5,600z"/>
	</g>
</g>
<g id="Layer_3">
	<g>
		<path class="st3" d="M555.2,1112.3c0.1-0.2,0.2-0.9,0.3-1.5l0.3-1.8c0.2-1.3,0.3-2.5,0.4-3.8c0.1-1.3,0.2-2.6,0.3-3.9l0.1-4
			c0.1-5.3-0.1-10.7-0.6-16.1c-0.9-10.8-2.5-21.7-4.8-32.4c-2.2-10.8-5.1-21.4-8.3-32c-3.1-10.6-6.8-21-10.7-31.4
			c-15.8-41.5-36.2-81.3-58.9-119.7c-2.8-4.8-5.7-9.6-8.6-14.3l-4.4-7.1l-2.2-3.6l-1.1-1.8l-1.1-1.9c-6.1-10.2-10.2-21.1-13.3-32.2
			c-3.1-11.1-5.2-22.3-6.7-33.6c-1.4-11.3-2.2-22.7-2.4-34c-0.5-22.7,1.1-45.3,4.4-67.7c3.3-22.4,8.3-44.5,15.4-66
			c7.1-21.5,16.2-42.4,28.2-61.7c6-9.6,12.8-18.8,20.6-27.2l5.8-6.1c1.9-2,3.7-4.1,5.5-6.2c3.6-4.2,7-8.6,10.2-13.1
			c13-18,23.8-37.7,33-58c9.2-20.3,16.8-41.4,23-62.9c12.4-42.9,19.3-87.5,21.1-132.2c1.8-44.8-1.6-89.7-9.7-133.8
			c8.6,44,12.6,89,11.3,133.9c-1.2,44.9-7.6,89.7-19.6,133.1c-6,21.7-13.4,43-22.4,63.6c-9.1,20.6-19.7,40.6-32.7,59.2
			c-3.3,4.6-6.7,9.2-10.3,13.5c-1.8,2.2-3.7,4.3-5.6,6.5L506,518c-7.3,8.2-13.8,17.2-19.6,26.7c-11.5,18.9-20.1,39.5-26.8,60.7
			c-6.7,21.2-11.3,43-14.2,65c-2.9,22-4.2,44.3-3.4,66.4c0.4,11.1,1.3,22.1,2.8,33c1.5,10.9,3.7,21.7,6.8,32.2
			c3.1,10.4,7.1,20.6,12.7,29.7l1,1.7l1.1,1.8l2.3,3.6l4.5,7.1c3.1,4.7,6,9.6,8.9,14.4c23.5,38.5,44.7,78.5,61.4,120.6
			c4.1,10.6,8,21.2,11.4,32.1c3.4,10.8,6.5,21.8,9,33c2.5,11.2,4.4,22.5,5.5,34c0.5,5.8,0.9,11.6,0.8,17.4l-0.1,4.4
			c-0.1,1.5-0.1,3-0.2,4.5c-0.1,1.5-0.3,3-0.4,4.5l-0.3,2.3c-0.1,0.8-0.2,1.5-0.5,2.6L555.2,1112.3z"/>
	</g>
	<path class="st4" d="M475,860c0,0-134.5-41.5-143.5-79.5"/>
	<path class="st4" d="M439.3,690.8c0,0,61.7-30.8,76.7-62.8"/>
	<path class="st4" d="M454.6,610.4c0,0-94.6-45.4-104.6-75.4"/>
	<path class="st4" d="M502.9,517.4c0,0-18.9-35.4-19.9-81.4"/>
</g>
<g id="Layer_5">
	<g>
		<path class="st3" d="M570,402c-1.8,0-3.1-0.4-4.3-0.9c-1.1-0.5-2-1.3-2.7-2.1c-0.7-0.9-1.2-1.9-1.5-3.1c-0.3-1.2-0.4-2.6,0-4.4
			c1.8,0,3.1,0.4,4.3,0.9c1.1,0.5,2,1.3,2.7,2.2c0.7,0.9,1.2,1.9,1.5,3.1C570.3,398.9,570.4,400.2,570,402z"/>
	</g>
	<g>
		<line class="st3" x1="573.5" y1="393.5" x2="586.5" y2="383.5"/>
		<path class="st3" d="M573.5,393.5c0.1-2.1,0.6-3.7,1.3-5c0.7-1.3,1.6-2.3,2.7-3.2c1.1-0.8,2.3-1.5,3.8-1.8c1.5-0.3,3.1-0.5,5.2,0
			c-0.1,2.2-0.6,3.7-1.3,5c-0.7,1.3-1.6,2.3-2.7,3.2c-1.1,0.8-2.3,1.5-3.8,1.8C577.2,393.8,575.6,394,573.5,393.5z"/>
	</g>
	<g>
		<line class="st3" x1="580" y1="372" x2="568.5" y2="356.5"/>
		<path class="st3" d="M580,372c-2.6-0.1-4.4-0.7-6-1.5c-1.6-0.8-2.8-1.9-3.7-3.2c-1-1.3-1.7-2.8-2-4.5c-0.3-1.8-0.4-3.7,0.3-6.2
			c2.6,0,4.5,0.7,6,1.5c1.6,0.8,2.8,1.9,3.7,3.2c1,1.3,1.7,2.8,2,4.5C580.6,367.5,580.7,369.5,580,372z"/>
	</g>
	<g>
		<path class="st3" d="M585.5,355.5c0,0,15-9,17-14"/>
		<path class="st3" d="M585.5,355.5c0.6-2.6,1.6-4.3,2.7-5.9c1.1-1.6,2.4-2.8,3.8-3.9c1.4-1.1,2.9-1.9,4.6-2.5
			c0.8-0.3,1.7-0.6,2.7-0.8c0.5-0.1,0.9-0.2,1.5-0.4c0.3-0.1,0.5-0.1,0.8-0.2c0.3-0.1,0.6-0.2,0.9-0.3c0.2,0.6,0.4,1.3,0.3,1.9
			c0,0.6-0.1,1.3-0.2,1.8c-0.1,0.6-0.3,1.1-0.5,1.7c-0.2,0.5-0.4,1-0.7,1.5c-1.1,1.9-2.4,3.3-4,4.5c-1.6,1.2-3.3,2-5.3,2.5
			C590.2,355.9,588.1,356.1,585.5,355.5z"/>
	</g>
	<g>
		<path class="st3" d="M590.5,330.5c0,0-10-11-9-15"/>
		<path class="st3" d="M590.5,330.5c-2.4,0.1-4.1-0.4-5.6-1.2c-1.5-0.8-2.7-1.9-3.6-3.2c-0.9-1.3-1.6-2.9-1.8-4.7
			c-0.1-0.9-0.1-1.9,0.2-3c0.1-0.5,0.3-1.1,0.6-1.6c0.3-0.5,0.7-1,1.3-1.3c0.2,0.3,0.4,0.4,0.6,0.6c0.2,0.1,0.4,0.3,0.6,0.4l1.1,0.6
			c0.7,0.4,1.3,0.7,1.9,1.1c1.2,0.8,2.1,1.7,2.9,2.8c0.8,1.1,1.4,2.4,1.7,3.9C590.7,326.4,590.9,328.2,590.5,330.5z"/>
	</g>
	<g>
		<line class="st3" x1="595.5" y1="300.5" x2="610.5" y2="287.5"/>
		<path class="st3" d="M595.5,300.5c0.7-1.7,1.7-3.1,2.7-4.4c1.1-1.3,2.2-2.5,3.5-3.6c1.2-1.1,2.6-2.1,4-2.9c1.5-0.9,3-1.6,4.8-2.1
			c-0.7,1.7-1.7,3.1-2.7,4.4c-1.1,1.3-2.2,2.5-3.5,3.6c-1.3,1.1-2.6,2.1-4,2.9C598.8,299.3,597.3,300,595.5,300.5z"/>
	</g>
	<g>
		<path class="st3" d="M598.5,276.5c0,0-8-8-10-13"/>
		<path class="st3" d="M598.5,276.5c-1.6-0.4-2.8-1.1-4-2c-1.2-0.8-2.2-1.8-3.1-2.9c-0.9-1.1-1.7-2.3-2.2-3.7
			c-0.5-1.3-1-2.9-0.7-4.5c1.3,0.9,2.3,1.8,3.3,2.7c1,0.9,1.9,1.9,2.7,2.9c0.8,1,1.6,2.1,2.3,3.3
			C597.5,273.7,598.1,274.9,598.5,276.5z"/>
	</g>
	<g>
		<path class="st3" d="M601.5,243.5c0,0,6-6,12-7"/>
		<path class="st3" d="M601.5,243.5c0.1-1.6,0.7-2.8,1.5-3.8c0.7-1,1.7-1.9,2.8-2.6c1.1-0.7,2.3-1.1,3.6-1.3c1.3-0.1,2.8,0,4.1,0.8
			c-1,1.2-1.8,2.1-2.6,2.8c-0.8,0.8-1.6,1.4-2.6,2c-0.9,0.6-1.9,1.1-3,1.4C604.3,243.1,603.1,243.4,601.5,243.5z"/>
	</g>
	<g>
		<path class="st3" d="M601.5,222.5c0,0-6-6-8-6"/>
		<path class="st3" d="M601.5,222.5c-1.3,0.1-2.3,0-3.2-0.3c-0.9-0.3-1.6-0.7-2.2-1.2c-0.6-0.5-1.1-1.1-1.5-1.8
			c-0.2-0.4-0.4-0.8-0.5-1.2c-0.2-0.5-0.2-0.9-0.6-1.5c0.5-0.5,1.2-0.6,1.8-0.7c0.6-0.1,1.1,0,1.6,0.1c1,0.2,1.8,0.7,2.5,1.2
			c0.7,0.6,1.2,1.3,1.6,2.1C601.4,220.2,601.6,221.2,601.5,222.5z"/>
	</g>
	<g>
		<path class="st3" d="M601.5,209.5c0,0,5-7,7-12"/>
		<path class="st3" d="M601.5,209.5c0-1.4,0.3-2.6,0.6-3.7c0.4-1.1,0.9-2.1,1.4-3.1c0.6-1,1.3-1.9,2-2.7c0.8-0.9,1.7-1.7,2.9-2.4
			c0.3,1.4,0.2,2.7-0.1,3.9c-0.3,1.2-0.8,2.3-1.4,3.3c-0.6,1-1.4,1.9-2.3,2.8C603.9,208.3,602.8,209,601.5,209.5z"/>
	</g>
	<g>
		<path class="st3" d="M601.5,190.5c0,0-5-4-6-5"/>
		<path class="st3" d="M601.5,190.5c-0.9,0.1-1.6-0.1-2.3-0.3c-0.6-0.2-1.2-0.6-1.7-1c-0.5-0.4-0.9-0.9-1.3-1.5
			c-0.3-0.6-0.7-1.3-0.7-2.2c0.9,0,1.6,0.1,2.2,0.4c0.6,0.2,1.2,0.6,1.7,1c0.5,0.4,0.9,0.9,1.3,1.5
			C601.1,189,601.4,189.6,601.5,190.5z"/>
	</g>
	<g>
		<line class="st3" x1="600" y1="171" x2="602.5" y2="167.5"/>
		<path class="st3" d="M600,171c-0.1-0.5-0.1-0.9,0-1.3c0.1-0.4,0.2-0.7,0.4-1c0.2-0.3,0.5-0.5,0.8-0.8c0.3-0.2,0.7-0.4,1.3-0.4
			c0.1,0.5,0.1,0.9,0,1.3c-0.1,0.4-0.2,0.7-0.5,1c-0.2,0.3-0.5,0.5-0.8,0.7C600.9,170.8,600.5,171,600,171z"/>
	</g>
</g>
<g id="Layer_4">
	<g>
		
			<ellipse transform="matrix(0.6655 -0.7464 0.7464 0.6655 -83.8189 571.4753)" class="st5" cx="595.7" cy="379.3" rx="12" ry="12"/>
		<g>
			<path class="st6" d="M587.7,373.5"/>
		</g>
		<g>
			<path class="st7" d="M585.6,379.6c0.3-1.5,0.8-3,1.8-4.4c0.5-0.6,1.2-1.2,2-1.6c0.4-0.2,0.8-0.4,1.2-0.5c0.4-0.1,0.8-0.3,1.2-0.3
				c1.7-0.3,3.3-0.5,4.8,0c1.5,0.4,2.8,1,4.2,1.9l0,0.3c-0.8,0.4-1.6,0.6-2.4,0.7c-0.8,0.1-1.6,0.1-2.3,0.1c-1.5,0-2.8-0.5-4.1-0.5
				c-1.3,0-2.5,0.3-3.6,1.1c-1.1,0.8-1.9,2.1-2.6,3.4L585.6,379.6z"/>
		</g>
		<g>
			<path class="st7" d="M601.4,374.2c0,1.5,0,2.7-0.1,4c0,1.2-0.5,2.4-0.6,3.7c0,1.2,0.1,2.5,0.5,3.6c0.4,1.1,1.3,2.1,2.4,2.8
				l-0.1,0.3c-1.4-0.2-2.7-1.1-3.6-2.3c-0.9-1.2-1.4-2.7-1.6-4.2c-0.2-1.5-0.5-3,0-4.4c0.2-0.7,0.6-1.4,1-2c0.4-0.6,1-1.2,1.7-1.6
				L601.4,374.2z"/>
		</g>
		<g>
			<path class="st7" d="M593.3,367.3c0.7,0,1.5,0.2,2.1,0.5c0.7,0.3,1.3,0.7,1.9,1.1c1.2,0.8,2.3,1.8,3.3,2.8l0.8,0.7
				c0.1,0,0-0.2-0.1-0.2c-0.1,0-0.2-0.1-0.3,0.1c0,0.1-0.1,0.1-0.1,0.2c0,0,0.1-0.2,0.1-0.2c0.1-0.4,0.2-0.9,0.2-1.5
				c0-0.6-0.1-1.3-0.2-2.1l0.2-0.2c0.8,0.3,1.4,0.8,1.9,1.5c0.5,0.7,0.9,1.5,0.9,2.5c0,0.3,0,0.5-0.1,0.8c-0.1,0.4-0.3,0.8-0.6,1.1
				c-0.6,0.6-1.4,0.9-2.1,0.8c-0.8-0.1-1.5-0.5-1.9-1.1c-0.2-0.3-0.4-0.6-0.5-0.9c-0.8-1.1-1.6-2.2-2.5-3.2c-0.9-1-1.8-2-3.1-2.5
				L593.3,367.3z"/>
		</g>
		<path class="st3" d="M588.4,368.8c0,0-8.8,7.3-11.6,16c-2.2,6.9,0.8,9,2.1,9.6c0.3,0.1,0.7,0.2,1.2,0.3l20.9-4.1
			c0,0-4.8-4.2-7.5-3.9c0,0,2.7-5.3,1.7-6.7c-1-1.4-5.7-2.1-5.7-2.1S589.7,369.6,588.4,368.8"/>
		<g>
			<path class="st7" d="M601.4,374c1.1,0.2,1.7,0.7,2.3,1.2c0.6,0.5,0.7,1.3,1,1.9c0.4,0.6,0.7,1.2,1.2,1.7c0.4,0.5,0.9,1,1.6,0.9
				l0.1,0.3c-0.3,0.3-0.8,0.5-1.3,0.4c-0.5,0-0.9-0.2-1.3-0.4c-0.8-0.4-1.5-0.9-2.1-1.4c-0.6-0.5-1.4-1-1.7-1.7
				c-0.2-0.4-0.3-0.8-0.3-1.2c0-0.4,0-0.9,0.2-1.5L601.4,374z"/>
		</g>
	</g>
	<g>
		<ellipse transform="matrix(0.3453 -0.9385 0.9385 0.3453 -7.6612 817.0393)" class="st5" cx="581.8" cy="414" rx="9.2" ry="9.2"/>
		<g>
			<path class="st6" d="M577.5,407.8"/>
		</g>
		<g>
			<path class="st7" d="M574.4,411.7c0.5-1,1.3-2,2.4-2.8c0.6-0.4,1.2-0.6,1.9-0.7c0.3,0,0.7-0.1,1-0.1c0.3,0,0.7,0,1,0.1
				c1.3,0.2,2.6,0.4,3.6,1.2c0.5,0.4,0.9,0.8,1.3,1.2c0.4,0.4,0.7,0.9,1.1,1.5l-0.1,0.3c-0.7,0.2-1.4,0.2-2,0.1
				c-0.6-0.1-1.2-0.2-1.7-0.4c-1.1-0.3-1.8-1.1-2.7-1.5c-0.9-0.3-1.8-0.5-2.7-0.2c-1,0.2-1.9,0.9-2.8,1.6L574.4,411.7z"/>
		</g>
		<g>
			<path class="st7" d="M587.2,411.9c-0.2,1.2-0.5,2.1-0.8,3c-0.3,0.9-1,1.5-1.4,2.4c-0.4,0.8-0.6,1.7-0.7,2.6
				c-0.1,0.9,0.3,1.8,0.9,2.6l-0.2,0.2c-1-0.5-1.8-1.4-2.2-2.6c-0.4-1.1-0.4-2.4-0.2-3.5c0.2-1.1,0.3-2.4,1.1-3.3
				c0.4-0.4,0.8-0.8,1.3-1.2c0.5-0.3,1.1-0.6,1.8-0.5L587.2,411.9z"/>
		</g>
		<g>
			<path class="st7" d="M583.1,404.8c0.6,0.2,1,0.5,1.5,0.9c0.4,0.4,0.8,0.8,1.1,1.2c0.7,0.9,1.3,1.8,1.8,2.8
				c0.1,0.2,0.3,0.5,0.4,0.7c0-0.1-0.1-0.3-0.2-0.4c-0.1-0.1-0.3-0.1-0.5,0c-0.1,0.1-0.2,0.2-0.2,0.2c0,0,0.1-0.1,0.1-0.1
				c0.2-0.2,0.4-0.5,0.6-0.9c0.2-0.4,0.4-0.9,0.6-1.6l0.3-0.1c0.6,0.4,1,0.9,1.2,1.6c0.2,0.6,0.3,1.4,0.1,2.2
				c-0.1,0.2-0.1,0.4-0.3,0.6c-0.2,0.3-0.5,0.6-0.8,0.8c-0.7,0.4-1.5,0.3-2.1,0.1c-0.6-0.3-1.1-0.9-1.2-1.5c0-0.3-0.1-0.5-0.1-0.8
				c-0.2-1-0.5-2-0.8-2.9c-0.3-1-0.7-1.9-1.4-2.6L583.1,404.8z"/>
		</g>
		<path class="st3" d="M579.2,404.6c0,0-8.2,3-12.4,8.5c-3.4,4.4-1.7,6.7-0.9,7.4c0.2,0.2,0.4,0.3,0.8,0.5l16.1,2.5
			c0,0-2.4-4.3-4.4-4.8c0,0,3.3-3.1,3-4.4s-3.5-2.9-3.5-2.9S580,405.5,579.2,404.6"/>
		<g>
			<path class="st7" d="M587.2,411.7c0.5,0.2,0.8,0.4,1.1,0.6c0.3,0.2,0.5,0.5,0.6,0.7c0.4,0.5,0.1,1.1,0.2,1.6
				c0.1,0.5,0.1,1.1,0.3,1.6c0.1,0.5,0.2,0.9,0.8,1.1l0,0.3c-0.2,0-0.3,0.1-0.5,0.1c-0.2,0-0.4,0-0.6-0.1c-0.4-0.1-0.7-0.4-0.9-0.6
				c-0.5-0.5-0.9-1-1.3-1.6c-0.3-0.5-0.9-1-0.8-1.7c0-0.3,0.1-0.7,0.2-1c0.1-0.3,0.3-0.7,0.7-1.1L587.2,411.7z"/>
		</g>
	</g>
	<g>
		<ellipse transform="matrix(0.9928 -0.1198 0.1198 0.9928 -42.3037 69.1647)" class="st5" cx="554.3" cy="386.6" rx="10" ry="10"/>
		<g>
			<path class="st6" d="M561.4,382.4"/>
		</g>
		<g>
			<path class="st7" d="M562.3,387.8c-0.5-1.1-1.1-2.2-1.9-3c-0.8-0.7-1.8-1-2.8-1.1c-1.1-0.1-2.2,0.3-3.4,0.2
				c-0.6-0.1-1.3-0.2-1.9-0.4c-0.6-0.2-1.3-0.5-1.9-0.9l0-0.3c1.3-0.7,2.4-1.2,3.7-1.4c1.3-0.3,2.7,0.1,4,0.5c0.3,0.1,0.7,0.2,1,0.4
				c0.3,0.1,0.7,0.3,1,0.5c0.6,0.4,1.1,1,1.5,1.6c0.7,1.2,1,2.6,1.1,3.8L562.3,387.8z"/>
		</g>
		<g>
			<path class="st7" d="M550.2,381.7c0.7,0.3,1.1,0.9,1.5,1.4c0.4,0.6,0.6,1.2,0.7,1.8c0.3,1.2-0.1,2.5-0.4,3.7
				c-0.3,1.2-0.9,2.4-1.8,3.4c-0.9,0.9-2.1,1.5-3.3,1.6l-0.1-0.3c1-0.5,1.8-1.2,2.2-2.1c0.4-0.9,0.6-1.9,0.6-2.9c0-1-0.3-2-0.2-3
				c0.1-1,0.3-2,0.5-3.3L550.2,381.7z"/>
		</g>
		<g>
			<path class="st7" d="M557.3,377.2c-1.1,0.3-1.9,1.1-2.7,1.8c-0.8,0.8-1.5,1.6-2.3,2.5c-0.2,0.2-0.3,0.4-0.5,0.7
				c-0.4,0.5-1.1,0.8-1.8,0.8c-0.7,0-1.4-0.3-1.9-1c-0.2-0.3-0.4-0.7-0.4-1.1c0-0.3,0-0.5,0-0.7c0.1-0.9,0.5-1.6,1-2.1
				c0.5-0.5,1.1-0.9,1.8-1l0.2,0.2c-0.1,0.7-0.2,1.3-0.2,1.8c0,0.5,0,0.9,0.1,1.2c0,0.1,0,0.2,0.1,0.2c0-0.1,0-0.2-0.1-0.3
				c-0.1-0.2-0.3-0.2-0.4-0.2c-0.1,0-0.3,0.2-0.3,0.2l0.7-0.5c1-0.7,2-1.4,3-2c0.5-0.3,1.1-0.5,1.7-0.7c0.6-0.2,1.2-0.3,1.9-0.2
				L557.3,377.2z"/>
		</g>
		<path class="st3" d="M561.2,378.5c0,0,6.7,6.8,8.2,14.2c1.2,5.9-1.4,7.4-2.6,7.8c-0.3,0.1-0.6,0.1-1,0.1l-17-5.2
			c0,0,4.4-3.1,6.6-2.6c0,0-1.8-4.7-0.9-5.7c0.9-1,4.9-1.2,4.9-1.2S560.1,379.1,561.2,378.5"/>
		<g>
			<path class="st7" d="M550.2,381.9c0.2,0.5,0.2,0.9,0.1,1.3c0,0.4-0.1,0.7-0.3,1.1c-0.3,0.7-1,0.9-1.6,1.3c-0.6,0.4-1.2,0.7-1.9,1
				c-0.4,0.1-0.8,0.2-1.2,0.2c-0.2,0-0.4-0.1-0.6-0.1c-0.2-0.1-0.3-0.2-0.5-0.4l0.2-0.2c0.6,0.1,1-0.3,1.3-0.7
				c0.4-0.4,0.7-0.9,1-1.4c0.3-0.5,0.4-1.2,1-1.5c0.3-0.2,0.6-0.3,0.9-0.4c0.4-0.1,0.7-0.2,1.3-0.2L550.2,381.9z"/>
		</g>
	</g>
	<g>
		
			<ellipse transform="matrix(7.719599e-02 -0.997 0.997 7.719599e-02 168.565 877.933)" class="st5" cx="558.6" cy="347.9" rx="14.2" ry="14.2"/>
		<g>
			<path class="st6" d="M569.2,343"/>
		</g>
		<g>
			<path class="st7" d="M569.8,350.6c-0.5-1.7-1.1-3.4-2.2-4.6c-1-1.2-2.4-1.9-4-2.3c-1.6-0.3-3.3-0.1-5-0.4
				c-0.9-0.1-1.8-0.3-2.7-0.6c-0.9-0.3-1.8-0.6-2.6-1.2l0.1-0.3c1.9-0.5,3.5-0.9,5.3-1c1.8-0.1,3.7,0.4,5.6,1.1
				c0.2,0.1,0.5,0.2,0.7,0.3l0.7,0.4c0.5,0.2,0.9,0.5,1.3,0.8c0.8,0.6,1.4,1.4,1.9,2.3c0.9,1.7,1.2,3.6,1.2,5.4L569.8,350.6z"/>
		</g>
		<g>
			<path class="st7" d="M553.3,340.6c0.7,0.6,1.2,1.4,1.5,2.2c0.3,0.8,0.5,1.7,0.6,2.5c0.2,1.7-0.3,3.4-0.9,5.1
				c-0.6,1.6-1.4,3.2-2.7,4.5c-1.3,1.2-3,1.9-4.7,1.9l0-0.3c1.5-0.5,2.8-1.4,3.6-2.6c0.8-1.2,1.3-2.6,1.5-4.1c0.2-1.5,0-3,0.2-4.4
				c0.2-1.5,0.4-2.9,0.6-4.7L553.3,340.6z"/>
		</g>
		<g>
			<path class="st7" d="M564,334.9c-1.6,0.2-2.9,1.1-4.2,2.1c-1.3,0.9-2.5,2-3.7,3.1c-0.3,0.3-0.6,0.6-0.8,0.9
				c-0.5,0.5-1.4,0.9-2.2,0.8c-0.8-0.1-1.6-0.5-2.1-1.3c-0.2-0.4-0.4-0.8-0.4-1.3c0-0.4,0-0.6,0.1-0.9c0.2-1.1,0.8-2,1.5-2.7
				c0.7-0.7,1.5-1.1,2.4-1.4l0.2,0.2c-0.3,0.9-0.6,1.6-0.8,2.3c-0.2,0.7-0.3,1.3-0.3,1.9c0,0.1,0,0.3,0,0.3c0,0,0-0.1,0-0.1
				c-0.1-0.1-0.1-0.1-0.1,0c0,0,0,0.1,0.1,0.1l1.1-0.7c1.4-0.9,2.8-1.8,4.4-2.5c0.8-0.3,1.6-0.7,2.4-0.9c0.8-0.2,1.7-0.4,2.6-0.2
				L564,334.9z"/>
		</g>
		<path class="st3" d="M569.4,337.4c0,0,8.6,10.5,9.9,21.2c1,8.6-3,10.3-4.6,10.7c-0.4,0.1-0.8,0-1.5,0.1l-23.5-9.5
			c0,0,6.6-3.9,9.6-2.9c0,0-2-6.8-0.5-8.2c1.5-1.4,7.1-1.1,7.1-1.1S567.7,338,569.4,337.4"/>
		<g>
			<path class="st7" d="M553.3,340.8c0,0.6-0.1,1.1-0.2,1.6c-0.2,0.5-0.4,0.9-0.7,1.3c-0.5,0.8-1.5,1.2-2.3,1.7
				c-0.8,0.5-1.7,0.9-2.7,1.2c-0.5,0.1-1,0.2-1.6,0.2c-0.5,0-1.1-0.3-1.4-0.7l0.2-0.2c0.8,0.3,1.5-0.1,2.1-0.6
				c0.6-0.5,1.2-1.1,1.8-1.7c0.6-0.6,0.9-1.5,1.7-1.9c0.8-0.5,1.6-0.9,2.8-1L553.3,340.8z"/>
		</g>
	</g>
	<g>
		
			<ellipse transform="matrix(6.597710e-02 -0.9978 0.9978 6.597710e-02 232.5717 856.4982)" class="st5" cx="573.8" cy="304" rx="14.2" ry="14.2"/>
		<g>
			<path class="st6" d="M585.3,302.2"/>
		</g>
		<g>
			<path class="st7" d="M583.9,309.7c0-1.8-0.1-3.5-0.8-5c-0.7-1.5-1.8-2.5-3.2-3.3c-1.4-0.8-3.1-1-4.7-1.7
				c-0.8-0.4-1.6-0.8-2.4-1.3c-0.8-0.5-1.6-1.1-2.2-1.9l0.1-0.3c1.9,0,3.6,0.1,5.4,0.5c1.8,0.4,3.5,1.4,5,2.6
				c0.2,0.1,0.4,0.3,0.6,0.4l0.5,0.5c0.4,0.3,0.7,0.7,1,1.1c0.6,0.8,1,1.8,1.2,2.7c0.4,1.9,0.2,3.8-0.3,5.5L583.9,309.7z"/>
		</g>
		<g>
			<path class="st7" d="M570.8,295.6c0.5,0.8,0.7,1.7,0.8,2.6c0.1,0.9,0,1.8-0.1,2.6c-0.3,1.7-1.3,3.2-2.3,4.6
				c-1,1.4-2.2,2.7-3.8,3.5c-1.6,0.8-3.4,1-5,0.6l0-0.3c1.6,0,3.1-0.6,4.2-1.5c1.1-0.9,1.9-2.2,2.6-3.5c0.6-1.3,0.8-2.9,1.4-4.2
				c0.6-1.4,1.2-2.7,1.8-4.3L570.8,295.6z"/>
		</g>
		<g>
			<path class="st7" d="M582.6,293c-1.6-0.2-3.1,0.3-4.6,0.8c-1.5,0.6-2.9,1.3-4.4,2c-0.4,0.2-0.7,0.4-1.1,0.6
				c-0.7,0.4-1.6,0.4-2.4,0.1c-0.8-0.3-1.4-1-1.6-1.9c-0.1-0.4-0.1-0.9,0-1.3c0.1-0.4,0.2-0.6,0.3-0.8c0.5-1,1.3-1.7,2.2-2.2
				c0.8-0.5,1.7-0.7,2.7-0.7l0.1,0.3c-0.5,0.8-1,1.4-1.4,2c-0.4,0.6-0.7,1.2-0.8,1.7c0,0.1-0.1,0.3-0.1,0.3c0,0,0-0.1,0-0.1
				c0-0.1-0.1-0.1-0.1,0c0,0-0.1,0.1,0,0.1l1.2-0.4c1.6-0.5,3.2-1,4.9-1.2c0.8-0.1,1.7-0.2,2.6-0.2c0.9,0,1.7,0.1,2.5,0.5L582.6,293
				z"/>
		</g>
		<path class="st3" d="M587.1,296.9c0,0,5.4,12.4,3.6,23.1c-1.4,8.5-5.7,9.1-7.4,9c-0.4,0-0.8-0.2-1.4-0.3L562,313
			c0,0,7.4-1.9,10.1-0.1c0,0,0-7.1,1.8-8s7.1,0.9,7.1,0.9S585.3,297,587.1,296.9"/>
		<g>
			<path class="st7" d="M570.7,295.7c-0.1,0.6-0.4,1.1-0.7,1.5c-0.3,0.4-0.6,0.8-1,1.1c-0.7,0.7-1.8,0.7-2.7,1
				c-0.9,0.3-1.9,0.4-2.9,0.4c-0.5,0-1-0.1-1.5-0.3c-0.5-0.2-1-0.6-1.2-1.1l0.2-0.2c0.7,0.5,1.5,0.3,2.2,0c0.8-0.3,1.5-0.7,2.2-1.2
				c0.7-0.4,1.3-1.2,2.2-1.4c0.9-0.2,1.8-0.4,3-0.2L570.7,295.7z"/>
		</g>
	</g>
	<g>
		
			<ellipse transform="matrix(0.9877 -0.1567 0.1567 0.9877 -44.4993 100.3642)" class="st5" cx="614.4" cy="332.5" rx="14.9" ry="14.9"/>
		<g>
			<path class="st6" d="M603.7,326.5"/>
		</g>
		<g>
			<path class="st7" d="M602.1,334.4c0.2-1.9,0.6-3.8,1.7-5.5c0.6-0.8,1.3-1.6,2.2-2.2c0.4-0.3,0.9-0.6,1.4-0.8l0.7-0.3
				c0.2-0.1,0.5-0.2,0.7-0.2c2-0.6,4-1,5.9-0.7c1.9,0.2,3.6,0.7,5.5,1.3l0,0.3c-0.9,0.5-1.9,0.8-2.8,1c-1,0.2-1.9,0.3-2.8,0.4
				c-1.8,0.2-3.6-0.2-5.2,0c-1.6,0.2-3.2,0.9-4.4,2.1c-1.2,1.2-1.9,2.9-2.6,4.7L602.1,334.4z"/>
		</g>
		<g>
			<path class="st7" d="M620.6,325.4l0.2,4.9c0.1,1.6-0.2,3.1-0.1,4.7c0.2,1.5,0.5,3.1,1.3,4.4c0.7,1.3,2,2.4,3.6,3l-0.1,0.3
				c-1.7-0.1-3.5-1-4.7-2.4c-1.2-1.4-2-3.1-2.5-4.8c-0.5-1.7-0.9-3.6-0.6-5.3c0.2-0.9,0.4-1.8,0.8-2.6c0.4-0.8,0.9-1.7,1.7-2.2
				L620.6,325.4z"/>
		</g>
		<g>
			<path class="st7" d="M609.7,318.2c0.9-0.1,1.8,0.1,2.7,0.4c0.9,0.3,1.7,0.7,2.4,1.1c1.6,0.9,3,1.9,4.4,3l1,0.8
				c0.1,0,0.1-0.1,0.1-0.1c0,0,0-0.1-0.1,0c0,0,0,0.1,0,0.1c0,0,0-0.2,0.1-0.4c0.1-0.6,0-1.2-0.2-2c-0.2-0.8-0.5-1.5-0.7-2.5
				l0.2-0.2c0.9,0.3,1.7,0.9,2.4,1.6c0.7,0.7,1.2,1.7,1.3,2.9c0,0.3,0,0.5,0,0.9c0,0.4-0.2,0.9-0.5,1.3c-0.5,0.8-1.4,1.2-2.2,1.2
				c-0.8,0-1.7-0.4-2.2-0.9c-0.3-0.3-0.5-0.6-0.8-1c-1.2-1.2-2.3-2.4-3.6-3.5c-1.3-1.1-2.6-2.1-4.3-2.4L609.7,318.2z"/>
		</g>
		<path class="st3" d="M603.9,320.7c0,0-9.7,10.3-11.8,21.4c-1.7,8.9,2.4,11,4.1,11.5c0.4,0.1,0.9,0.1,1.5,0.2l25.2-8.2
			c0,0-6.6-4.5-9.8-3.7c0,0,2.6-7,1.1-8.5c-1.4-1.5-7.3-1.7-7.3-1.7S605.6,321.5,603.9,320.7"/>
		<g>
			<path class="st7" d="M620.6,325.2c1.2,0.3,2,0.7,2.8,1.3c0.8,0.5,1.1,1.4,1.6,2.1c0.6,0.7,1.1,1.4,1.8,1.9c0.6,0.6,1.4,1,2.2,0.8
				l0.2,0.2c-0.3,0.4-0.9,0.6-1.5,0.6c-0.6,0-1.1-0.1-1.6-0.3c-1-0.4-1.9-0.9-2.7-1.5c-0.8-0.6-1.8-1-2.3-1.9
				c-0.3-0.4-0.5-0.9-0.6-1.4c-0.1-0.5-0.2-1.1-0.2-1.7L620.6,325.2z"/>
		</g>
	</g>
	<g>
		
			<ellipse transform="matrix(0.9907 -0.1358 0.1358 0.9907 -32.5439 86.915)" class="st5" cx="621" cy="282.1" rx="12.3" ry="12.3"/>
		<g>
			<path class="st6" d="M612.4,276.7"/>
		</g>
		<g>
			<path class="st7" d="M610.7,283.1c0.2-1.6,0.6-3.1,1.6-4.6c0.5-0.7,1.2-1.3,1.9-1.8c0.4-0.2,0.8-0.5,1.2-0.6l0.6-0.2
				c0.2-0.1,0.4-0.1,0.6-0.2c1.7-0.4,3.4-0.7,4.9-0.4c1.6,0.3,2.9,0.8,4.5,1.6l0,0.3c-0.8,0.5-1.6,0.7-2.4,0.8
				c-0.8,0.2-1.6,0.2-2.3,0.2c-1.5,0.1-2.9-0.4-4.3-0.3c-1.3,0.1-2.6,0.5-3.6,1.4c-1.1,0.9-1.8,2.3-2.4,3.7L610.7,283.1z"/>
		</g>
		<g>
			<path class="st7" d="M626.5,276.5c0.1,1.5,0.2,2.8,0.2,4.1c0.1,1.3-0.4,2.5-0.3,3.8c0,1.3,0.2,2.5,0.8,3.6
				c0.5,1.1,1.5,2.1,2.7,2.7l-0.1,0.3c-1.4-0.1-2.9-0.9-3.9-2.1c-1-1.2-1.6-2.7-1.9-4.2c-0.3-1.5-0.7-3-0.3-4.5
				c0.2-0.7,0.5-1.5,0.9-2.1c0.4-0.7,0.9-1.3,1.7-1.7L626.5,276.5z"/>
		</g>
		<g>
			<path class="st7" d="M617.8,270c0.8-0.1,1.5,0.1,2.2,0.4c0.7,0.3,1.4,0.6,2,1c1.3,0.8,2.4,1.7,3.6,2.6l0.8,0.7
				c0.1,0,0-0.1-0.1-0.2c-0.1,0-0.2,0-0.3,0.1c0,0.1-0.1,0.1-0.1,0.2c0,0,0.1-0.2,0.1-0.3c0.1-0.4,0.1-0.9,0-1.6
				c-0.1-0.6-0.2-1.3-0.3-2.1l0.2-0.2c0.8,0.3,1.5,0.8,2,1.4c0.6,0.6,1,1.5,1.1,2.5c0,0.3,0,0.5,0,0.8c-0.1,0.4-0.2,0.8-0.5,1.1
				c-0.5,0.7-1.3,1-2.1,1c-0.8,0-1.5-0.4-2-1c-0.2-0.3-0.4-0.6-0.6-0.8c-0.9-1.1-1.8-2.1-2.8-3.1c-1-1-2-1.9-3.3-2.3L617.8,270z"/>
		</g>
		<path class="st3" d="M612.8,271.8c0,0-8.5,8.1-10.8,17.2c-1.8,7.3,1.4,9.2,2.8,9.7c0.3,0.1,0.7,0.1,1.2,0.2l21.2-5.6
			c0,0-5.2-4-8-3.5c0,0,2.4-5.7,1.3-7c-1.1-1.3-6-1.7-6-1.7S614.2,272.6,612.8,271.8"/>
		<g>
			<path class="st7" d="M626.5,276.3c1.1,0.2,1.8,0.6,2.4,1.1c0.6,0.4,0.8,1.3,1.2,1.9c0.4,0.6,0.8,1.2,1.3,1.7c0.5,0.5,1,1,1.7,0.8
				l0.2,0.3c-0.3,0.3-0.8,0.5-1.3,0.5c-0.5,0-0.9-0.1-1.4-0.3c-0.8-0.3-1.6-0.8-2.2-1.3c-0.7-0.5-1.5-0.9-1.8-1.7
				c-0.2-0.4-0.3-0.8-0.4-1.2c-0.1-0.4-0.1-0.9,0.1-1.5L626.5,276.3z"/>
		</g>
	</g>
	<g>
		
			<ellipse transform="matrix(0.9948 -0.1015 0.1015 0.9948 -22.8627 60.1686)" class="st5" cx="580.1" cy="254.8" rx="11.7" ry="11.7"/>
		<g>
			<path class="st6" d="M589.2,251.7"/>
		</g>
		<g>
			<path class="st7" d="M589,258c-0.3-1.4-0.7-2.8-1.5-3.9c-0.8-1.1-1.8-1.7-3-2.1c-1.2-0.4-2.6-0.2-4-0.7c-0.7-0.2-1.4-0.4-2.1-0.8
				c-0.7-0.3-1.4-0.7-2-1.3l0.1-0.3c1.6-0.4,3-0.6,4.5-0.6c1.5,0,3,0.7,4.5,1.4c0.4,0.2,0.7,0.4,1.1,0.7c0.4,0.2,0.7,0.5,1,0.8
				c0.6,0.6,1.1,1.3,1.4,2.1c0.6,1.5,0.6,3.1,0.4,4.6L589,258z"/>
		</g>
		<g>
			<path class="st7" d="M576.4,248.4c0.6,0.5,1,1.3,1.2,2c0.2,0.7,0.4,1.4,0.4,2.2c0.1,1.5-0.6,2.8-1.2,4.1
				c-0.6,1.3-1.5,2.6-2.7,3.4c-1.2,0.9-2.7,1.3-4.1,1.1l0-0.3c1.3-0.3,2.4-1,3.1-1.9c0.7-0.9,1.2-2,1.5-3.2c0.3-1.2,0.2-2.4,0.5-3.6
				c0.3-1.2,0.7-2.3,1.1-3.7L576.4,248.4z"/>
		</g>
		<g>
			<path class="st7" d="M585.6,244.7c-1.3,0.1-2.5,0.7-3.6,1.4c-1.1,0.7-2.2,1.5-3.2,2.3c-0.3,0.2-0.5,0.4-0.8,0.6
				c-0.5,0.4-1.4,0.7-2.1,0.5c-0.7-0.2-1.4-0.6-1.8-1.4c-0.2-0.4-0.3-0.8-0.2-1.2c0-0.3,0.1-0.5,0.2-0.8c0.3-0.9,0.9-1.6,1.6-2.1
				c0.7-0.5,1.4-0.8,2.2-0.8l0.2,0.2c-0.3,0.7-0.6,1.4-0.7,1.9c-0.2,0.6-0.3,1.1-0.3,1.5c0,0.1,0,0.2,0,0.2c0-0.1,0-0.1,0-0.2
				c-0.1-0.1-0.2-0.2-0.3-0.2c-0.1,0-0.2,0.1-0.2,0.2l0.9-0.5c1.2-0.6,2.5-1.2,3.9-1.6c0.7-0.2,1.4-0.4,2.1-0.5
				c0.7-0.1,1.5-0.1,2.1,0.1L585.6,244.7z"/>
		</g>
		<path class="st3" d="M589.8,247.1c0,0,6.1,9.3,6.3,18.2c0.1,7.1-3.3,8.2-4.7,8.3c-0.3,0-0.7,0-1.2-0.1l-18.4-9.8
			c0,0,5.7-2.6,8.1-1.5c0,0-1-5.8,0.3-6.7c1.3-1,5.9-0.3,5.9-0.3S588.4,247.5,589.8,247.1"/>
		<g>
			<path class="st7" d="M576.4,248.6c0,0.6-0.1,1-0.2,1.4c-0.1,0.4-0.4,0.8-0.6,1.1c-0.5,0.7-1.4,0.8-2.1,1.1
				c-0.7,0.3-1.5,0.6-2.4,0.7c-0.4,0-0.9,0.1-1.3,0c-0.5-0.1-0.9-0.4-1.1-0.8l0.2-0.2c0.6,0.3,1.2,0,1.7-0.4
				c0.5-0.4,1.1-0.8,1.6-1.3c0.5-0.5,0.8-1.2,1.5-1.5c0.7-0.3,1.4-0.5,2.5-0.4L576.4,248.6z"/>
		</g>
	</g>
	<g>
		
			<ellipse transform="matrix(0.1864 -0.9825 0.9825 0.1864 269.3321 750.1948)" class="st5" cx="587.6" cy="212.5" rx="7.9" ry="7.9"/>
		<g>
			<path class="st6" d="M593,208.8"/>
		</g>
		<g>
			<path class="st7" d="M594,213c-0.5-0.9-1.1-1.7-1.8-2.1c-0.7-0.5-1.4-0.6-2.2-0.6c-0.8,0-1.6,0.5-2.6,0.4c-0.5,0-1-0.1-1.5-0.3
				c-0.5-0.1-1.1-0.4-1.6-0.8l0-0.3c0.5-0.4,0.9-0.7,1.4-1c0.4-0.3,0.9-0.5,1.4-0.6c1-0.3,2.1-0.1,3.3,0.2c0.3,0.1,0.6,0.2,0.9,0.3
				c0.3,0.1,0.6,0.3,0.8,0.4c0.5,0.3,1,0.8,1.3,1.2c0.7,1,0.9,2,1,3.1L594,213z"/>
		</g>
		<g>
			<path class="st7" d="M584.1,208.9c0.6,0.2,1.1,0.6,1.4,1c0.4,0.4,0.6,0.9,0.8,1.4c0.4,1,0.1,2-0.2,3c-0.2,1-0.6,2-1.3,2.8
				c-0.7,0.8-1.7,1.3-2.6,1.4l-0.1-0.3c0.7-0.5,1.3-1.1,1.5-1.9c0.2-0.7,0.3-1.5,0.2-2.2c-0.1-0.8-0.5-1.5-0.4-2.3
				c0-0.4,0.1-0.8,0.2-1.2c0.1-0.4,0.2-0.9,0.3-1.5L584.1,208.9z"/>
		</g>
		<g>
			<path class="st7" d="M589.4,204.9c-0.8,0.4-1.4,1-1.9,1.7c-0.5,0.7-1,1.4-1.5,2.1c-0.1,0.2-0.2,0.4-0.3,0.6
				c-0.3,0.5-1,0.9-1.6,0.9c-0.6,0-1.3-0.2-1.8-0.8c-0.2-0.3-0.4-0.6-0.5-1c-0.1-0.3,0-0.4,0-0.6c0.1-0.8,0.4-1.4,0.8-1.8
				c0.4-0.4,0.9-0.7,1.6-0.8l0.2,0.2c0.1,0.6,0.1,1.1,0.1,1.5c0.1,0.4,0.2,0.7,0.3,0.8c0,0,0.1,0.1,0.1,0.1c0-0.1-0.1-0.2-0.2-0.3
				c-0.2-0.2-0.4-0.3-0.6-0.2c-0.2,0-0.4,0.2-0.4,0.3c0.2-0.1,0.4-0.3,0.6-0.5c0.7-0.6,1.5-1.2,2.4-1.7c0.4-0.2,0.9-0.5,1.3-0.6
				c0.5-0.2,1-0.3,1.5-0.2L589.4,204.9z"/>
		</g>
		<path class="st3" d="M592.6,205.7c0,0,5.7,5,7.4,10.7c1.3,4.6-0.7,5.9-1.6,6.3c-0.2,0.1-0.4,0.1-0.8,0.2l-13.7-3
			c0,0,3.3-2.7,5-2.5c0,0-1.7-3.6-1-4.4c0.7-0.9,3.8-1.3,3.8-1.3S591.7,206.2,592.6,205.7"/>
		<g>
			<path class="st7" d="M584.2,209.1c0.2,0.4,0.3,0.8,0.3,1.1c0,0.3,0,0.6-0.1,0.9c-0.1,0.6-0.8,0.8-1.3,1.1c-0.5,0.3-1,0.6-1.6,0.8
				c-0.3,0.1-0.6,0.2-1,0.2c-0.2,0-0.4-0.1-0.5-0.1c-0.2-0.1-0.3-0.2-0.4-0.3l0.2-0.3c0.5,0,0.7-0.4,0.9-0.7
				c0.2-0.4,0.4-0.8,0.6-1.2c0.2-0.4,0.2-1,0.6-1.3c0.2-0.1,0.5-0.2,0.8-0.3c0.3-0.1,0.7-0.1,1.2-0.1L584.2,209.1z"/>
		</g>
	</g>
	<g>
		
			<ellipse transform="matrix(0.3261 -0.9453 0.9453 0.3261 225.6164 682.7562)" class="st5" cx="591.7" cy="183.1" rx="4.8" ry="4.8"/>
		<g>
			<path class="st6" d="M595,180.9"/>
		</g>
		<g>
			<path class="st7" d="M595.5,183.4c-0.4-0.5-0.8-0.9-1.2-1.1c-0.4-0.2-0.8-0.2-1.2-0.1c-0.4,0.1-0.9,0.5-1.5,0.4
				c-0.3-0.1-0.6-0.1-1-0.3c-0.3-0.2-0.7-0.4-1-0.8l0-0.3c0.3-0.4,0.5-0.7,0.8-1c0.3-0.2,0.5-0.4,0.8-0.6c0.6-0.3,1.4,0,2.1,0.2
				c0.4,0.1,0.8,0.3,1.1,0.5c0.3,0.2,0.6,0.6,0.8,0.9c0.4,0.7,0.5,1.4,0.4,2.1L595.5,183.4z"/>
		</g>
		<g>
			<path class="st7" d="M589.6,180.9c0.5,0,0.9,0.3,1.2,0.5c0.3,0.2,0.5,0.5,0.7,0.9c0.3,0.6,0,1.3-0.2,2c-0.2,0.7-0.5,1.3-1,1.8
				c-0.5,0.5-1.2,0.8-1.8,0.7l-0.1-0.3c0.4-0.4,0.6-0.8,0.7-1.2c0-0.4,0-0.8-0.1-1.3c-0.1-0.4-0.5-0.8-0.4-1.3
				c0-0.2,0.1-0.5,0.3-0.7c0.1-0.3,0.3-0.5,0.5-1L589.6,180.9z"/>
		</g>
		<g>
			<path class="st7" d="M592.8,178.6c-0.4,0.3-0.7,0.7-1,1.2c-0.3,0.5-0.5,0.9-0.8,1.4c-0.1,0.1-0.1,0.2-0.2,0.4
				c-0.3,0.4-0.8,0.7-1.4,0.8c-0.5,0-1.2-0.1-1.6-0.6c-0.2-0.2-0.3-0.5-0.4-0.8c0-0.2,0-0.3,0-0.5c0.1-0.6,0.3-1,0.7-1.3
				c0.3-0.3,0.8-0.4,1.3-0.4l0.2,0.2c0.2,0.5,0.3,0.8,0.4,1c0.1,0.2,0.3,0.3,0.4,0.3c0,0,0,0,0-0.1c0-0.1-0.1-0.3-0.2-0.5
				c-0.2-0.3-0.6-0.4-0.8-0.3c-0.3,0-0.5,0.3-0.6,0.4c0.1-0.1,0.3-0.2,0.4-0.3c0.5-0.4,1-0.7,1.6-0.9c0.6-0.2,1.2-0.5,1.9-0.4
				L592.8,178.6z"/>
		</g>
		<path class="st3" d="M594.7,179c0,0,3.5,3,4.5,6.6c0.8,2.8-0.4,3.6-1,3.8c-0.1,0.1-0.3,0.1-0.5,0.1l-8.4-1.9c0,0,2-1.7,3.1-1.5
			c0,0-1-2.2-0.6-2.7c0.4-0.5,2.3-0.8,2.3-0.8S594.2,179.3,594.7,179"/>
		<g>
			<path class="st7" d="M589.6,181.1c0.3,0.4,0.4,0.6,0.5,0.9c0.1,0.3,0.1,0.5,0.1,0.7c0,0.4-0.6,0.5-0.9,0.6
				c-0.3,0.2-0.7,0.3-1.1,0.4c-0.2,0-0.5,0.1-0.7,0c-0.3,0-0.5-0.2-0.6-0.4l0.2-0.3c0.3-0.1,0.3-0.4,0.4-0.6
				c0.1-0.3,0.1-0.5,0.2-0.8c0.1-0.3-0.1-0.7,0.2-0.8c0.2-0.1,0.3-0.1,0.6-0.1c0.3,0,0.6,0,1,0.1L589.6,181.1z"/>
		</g>
	</g>
	<g>
		
			<ellipse transform="matrix(0.1673 -0.9859 0.9859 0.1673 286.4917 806.2013)" class="st5" cx="620.5" cy="233.5" rx="9.2" ry="9.2"/>
		<g>
			<path class="st6" d="M615.5,227.8"/>
		</g>
		<g>
			<path class="st7" d="M612.9,232c0.4-1.1,1-2.2,2-3.1c0.5-0.4,1.1-0.8,1.8-1c0.3-0.1,0.7-0.2,1-0.2c0.3,0,0.7-0.1,1,0
				c1.3,0,2.7,0.1,3.7,0.7c0.5,0.3,1,0.6,1.4,1c0.4,0.4,0.9,0.8,1.3,1.4l-0.1,0.3c-0.7,0.3-1.3,0.3-2,0.3c-0.6,0-1.2-0.1-1.8-0.2
				c-1.1-0.2-2-0.9-2.9-1.2c-0.9-0.2-1.8-0.3-2.8,0.1c-0.9,0.4-1.8,1.1-2.6,2L612.9,232z"/>
		</g>
		<g>
			<path class="st7" d="M625.6,230.7c-0.1,1.3-0.2,2.2-0.4,3.1c-0.2,0.9-0.8,1.6-1.1,2.5c-0.3,0.9-0.4,1.8-0.3,2.7
				c0.1,0.9,0.5,1.8,1.2,2.5l-0.2,0.3c-1-0.4-2-1.2-2.5-2.3c-0.5-1.1-0.7-2.3-0.6-3.5c0.1-1.2,0-2.4,0.7-3.4
				c0.3-0.5,0.7-0.9,1.2-1.3c0.5-0.4,1.1-0.7,1.8-0.8L625.6,230.7z"/>
		</g>
		<g>
			<path class="st7" d="M620.8,224.2c0.6,0.1,1.1,0.4,1.6,0.7c0.5,0.3,0.9,0.7,1.3,1.1c0.8,0.8,1.5,1.7,2.1,2.6
				c0.2,0.2,0.3,0.5,0.5,0.7c0-0.1-0.1-0.3-0.2-0.4c-0.1-0.1-0.3-0.1-0.5,0c-0.1,0.1-0.2,0.2-0.2,0.3c0,0,0.1-0.1,0.1-0.1
				c0.2-0.2,0.3-0.5,0.5-1c0.1-0.4,0.2-1,0.4-1.6l0.3-0.1c0.6,0.3,1.1,0.8,1.4,1.4c0.3,0.6,0.5,1.4,0.3,2.2
				c-0.1,0.2-0.1,0.4-0.2,0.6c-0.1,0.3-0.4,0.6-0.7,0.9c-0.6,0.5-1.4,0.5-2,0.3c-0.6-0.2-1.2-0.8-1.4-1.3c-0.1-0.3-0.1-0.5-0.2-0.7
				c-0.4-1-0.8-1.9-1.2-2.8c-0.4-0.9-0.9-1.8-1.8-2.4L620.8,224.2z"/>
		</g>
		<path class="st3" d="M616.8,224.4c0,0-7.8,4-11.4,10c-2.8,4.8-0.9,6.9,0,7.5c0.2,0.2,0.5,0.2,0.8,0.4l16.3,0.5c0,0-2.9-4-5-4.2
			c0,0,3-3.5,2.4-4.7s-3.9-2.5-3.9-2.5S617.7,225.3,616.8,224.4"/>
		<g>
			<path class="st7" d="M625.7,230.6c0.5,0.1,0.8,0.3,1.1,0.5c0.3,0.2,0.5,0.4,0.7,0.6c0.4,0.4,0.2,1.1,0.4,1.6
				c0.1,0.5,0.3,1.1,0.4,1.5c0.2,0.5,0.4,0.9,0.9,1l0.1,0.3c-0.1,0.1-0.3,0.2-0.5,0.2c-0.2,0-0.4,0-0.6-0.1c-0.4-0.1-0.7-0.3-1-0.5
				c-0.6-0.4-1-0.9-1.5-1.4c-0.4-0.5-1-0.9-1-1.6c0-0.3,0-0.7,0.1-1c0.1-0.4,0.3-0.7,0.6-1.1L625.7,230.6z"/>
		</g>
	</g>
	<g>
		
			<ellipse transform="matrix(0.974 -0.2267 0.2267 0.974 -28.0233 144.1563)" class="st5" cx="613.7" cy="194.1" rx="6.5" ry="6.5"/>
		<g>
			<path class="st6" d="M608.8,192.1"/>
		</g>
		<g>
			<path class="st7" d="M608.5,195.6c-0.2-0.8-0.2-1.7,0.2-2.7c0.2-0.5,0.5-0.9,0.8-1.3c0.4-0.4,0.8-0.7,1.3-0.9
				c0.9-0.4,1.8-0.9,2.6-0.8c0.4,0.1,0.8,0.2,1.2,0.3c0.4,0.2,0.8,0.4,1.3,0.7l0.1,0.3c-0.3,0.5-0.7,0.8-1.1,1.1
				c-0.4,0.3-0.8,0.4-1.2,0.5c-0.7,0.3-1.5,0-2.1,0.1c-0.6,0.1-1.2,0.3-1.6,0.7c-0.5,0.4-0.8,1.2-1.2,1.9L608.5,195.6z"/>
		</g>
		<g>
			<path class="st7" d="M616.2,190.8c0.3,0.5,0.5,0.8,0.7,1.1c0.2,0.3,0.3,0.6,0.4,0.9c0.2,0.6-0.1,1.2,0,1.8
				c0.1,0.6,0.2,1.2,0.4,1.7c0.2,0.6,0.7,1,1.4,1.3l0,0.3c-0.8,0.2-1.7-0.1-2.4-0.6c-0.7-0.5-1.3-1.3-1.6-2.1
				c-0.4-0.8-0.9-1.6-0.7-2.4c0.1-0.4,0.2-0.8,0.5-1.2c0.2-0.4,0.6-0.8,1.1-1L616.2,190.8z"/>
		</g>
		<g>
			<path class="st7" d="M611,188.1c0.8-0.3,1.7-0.1,2.5,0.1c0.8,0.2,1.5,0.5,2.2,0.9c0.2,0.1,0.4,0.2,0.5,0.2
				c-0.1-0.1-0.3-0.3-0.6-0.3c-0.2,0-0.5,0.1-0.6,0.4c-0.1,0.1-0.1,0.3-0.1,0.4c0,0.1,0,0,0,0c0.1-0.1,0.2-0.3,0.2-0.6
				c0-0.3,0-0.7,0-1.3l0.2-0.2c0.6-0.1,1.1,0,1.5,0.3c0.5,0.3,0.9,0.7,1.1,1.4c0,0.2,0.1,0.3,0.1,0.5c0,0.3-0.1,0.7-0.2,1
				c-0.3,0.6-0.9,1-1.5,1c-0.6,0.1-1.3-0.2-1.6-0.5c-0.1-0.1-0.2-0.3-0.3-0.4c-0.5-0.5-1-1-1.5-1.5c-0.5-0.5-1.1-0.9-1.7-1.1
				L611,188.1z"/>
		</g>
		<path class="st3" d="M608.6,189.5c0,0-3.7,4.9-4,9.8c-0.3,3.9,1.6,4.6,2.3,4.8c0.2,0,0.4,0,0.7,0l10.4-4.8c0,0-3.1-1.6-4.4-1.1
			c0,0,0.8-3.1,0.1-3.7s-3.2-0.4-3.2-0.4S609.4,189.8,608.6,189.5"/>
		<g>
			<path class="st7" d="M616.1,190.6c0.4-0.1,0.8-0.2,1.1-0.2c0.3,0,0.5,0,0.7,0.1c0.4,0.1,0.4,0.6,0.6,0.9c0.2,0.3,0.4,0.6,0.6,0.9
				c0.2,0.3,0.4,0.5,0.8,0.6l0.2,0.2c-0.1,0.1-0.2,0.3-0.3,0.3c-0.1,0.1-0.3,0.2-0.4,0.2c-0.3,0.1-0.6,0.1-0.9,0.1
				c-0.6,0-1-0.2-1.5-0.3c-0.4-0.2-1.1-0.2-1.2-0.6c-0.1-0.2-0.2-0.5-0.2-0.8c0-0.3,0-0.6,0.2-1.1L616.1,190.6z"/>
		</g>
	</g>
	<g>
		
			<ellipse transform="matrix(0.9883 -0.1526 0.1526 0.9883 -18.0555 94.4044)" class="st5" cx="605.8" cy="164.8" rx="3.8" ry="3.8"/>
		<g>
			<path class="st6" d="M603,163.6"/>
		</g>
		<g>
			<path class="st7" d="M602.7,165.6c-0.2-0.5-0.3-1.1-0.1-1.7c0.1-0.3,0.3-0.6,0.5-0.9c0.2-0.3,0.5-0.5,0.8-0.7
				c0.6-0.3,1.1-0.8,1.7-0.6c0.3,0.1,0.5,0.2,0.7,0.4c0.2,0.2,0.5,0.4,0.8,0.8l0.1,0.3c-0.1,0.5-0.4,0.8-0.6,1
				c-0.2,0.2-0.5,0.4-0.7,0.5c-0.4,0.3-0.8-0.1-1.1-0.1c-0.3,0-0.6,0-0.9,0.1c-0.3,0.2-0.6,0.5-0.9,1L602.7,165.6z"/>
		</g>
		<g>
			<path class="st7" d="M607.3,162.9c0.3,0.3,0.6,0.5,0.8,0.7c0.2,0.2,0.3,0.3,0.4,0.5c0.2,0.3-0.1,0.6-0.1,1c0,0.3,0,0.6,0,1
				c0,0.3,0.2,0.6,0.6,0.9l0,0.3c-0.5,0.2-1.1,0.1-1.7-0.2c-0.5-0.3-0.9-0.8-1.2-1.3c-0.3-0.5-0.8-1-0.6-1.6
				c0.1-0.3,0.2-0.6,0.5-0.8c0.2-0.2,0.6-0.5,1-0.6L607.3,162.9z"/>
		</g>
		<g>
			<path class="st7" d="M604.2,161.2c0.5-0.3,1.1-0.2,1.6-0.2c0.5,0.1,1,0.2,1.5,0.4c0.1,0,0.2,0.1,0.4,0.1
				c-0.1-0.2-0.5-0.3-0.8-0.3c-0.3,0-0.6,0.2-0.8,0.5c-0.1,0.2-0.1,0.4-0.1,0.5c0,0.1,0,0.1,0.1,0.1c0.1,0.1,0.2,0,0.4-0.2
				c0.1-0.2,0.2-0.5,0.3-1l0.2-0.2c0.5-0.2,0.8-0.2,1.2,0c0.4,0.1,0.7,0.5,0.9,1c0,0.1,0.1,0.2,0.1,0.4c0,0.3-0.1,0.6-0.2,0.9
				c-0.3,0.5-0.8,0.8-1.3,0.9c-0.5,0.1-1.1-0.1-1.4-0.5c0-0.1-0.1-0.2-0.2-0.3c-0.2-0.3-0.5-0.7-0.8-1c-0.3-0.4-0.5-0.7-0.9-0.9
				L604.2,161.2z"/>
		</g>
		<path class="st3" d="M602.8,162.1c0,0-2.2,2.9-2.4,5.8c-0.2,2.3,0.9,2.7,1.4,2.8c0.1,0,0.2,0,0.4,0l6.1-2.8c0,0-1.8-1-2.6-0.7
			c0,0,0.4-1.8,0-2.2s-1.9-0.2-1.9-0.2S603.3,162.3,602.8,162.1"/>
		<g>
			<path class="st7" d="M607.3,162.7c0.4-0.2,0.7-0.3,0.9-0.4c0.2-0.1,0.4-0.1,0.5-0.1c0.3,0,0.2,0.4,0.3,0.6
				c0.1,0.2,0.1,0.4,0.2,0.6c0.1,0.2,0,0.4,0.3,0.6l0.2,0.2c0,0.2-0.2,0.4-0.5,0.5c-0.2,0.1-0.4,0.1-0.6,0.1c-0.4,0-0.7,0-1-0.1
				c-0.3-0.1-0.8,0-0.9-0.3c0-0.2,0-0.4,0-0.6c0.1-0.2,0.1-0.5,0.4-0.9L607.3,162.7z"/>
		</g>
	</g>
</g>
<g id="Layer_2">
	<g id="Flower">
		<path class="st8" d="M519.1,616.4L519.1,616.4L519.1,616.4l12.7-52.6c0.1-0.2,0.2-0.5,0.4-0.7
			C563.6,581.8,520.9,614.8,519.1,616.4z"/>
		<path class="st9" d="M530.5,579.6c-0.3,0.9-0.5,1.9-0.4,2.9c0.6,6.3,2.5,30.7-6.2,38.5c-5.7,5.1-12.4,2.5-17-0.8
			c-2.1-1.5-3.8-3-4.8-4.1c-0.8-0.8-1.7-1.3-2.7-1.6c-6.1-1.8-27.8-9.2-41.3-24.5c-6.5-7.4-11.1-16.7-11.1-28
			c0-35.8,24.4-41.3,29.2-38.1c1,0.6,2,1.2,3.2,1.3c9.4,1.2,43.3,7.4,52.3,35.9c0.2,0.5,0.3,1,0.5,1.5
			C533.6,565.5,534.9,567.8,530.5,579.6z"/>
		<path class="st8" d="M507,620.2c-3.5-2.5-6-5.2-6-5.2s-27.1-7-42.9-25c10.7-6.1,23.6-6.7,34.9-1C503.6,594.3,506.6,613,507,620.2z
			"/>
		<path class="st9" d="M511.1,646c-1.6,0.4-3.2,0.9-4.7,1.6c-1.1,0.5-2.1,1-3.1,1.7c-7,4.7-21.3,13.2-37.2,17.8
			c-13,3.8-27.1,4.9-39.1-1c-23.1-11.2-23.7-21.4-21.9-26.5c1-2.8,1.5-5.7,1.5-8.6c-0.2-8.2,1.8-24.6,18.4-36.6
			c4.1-2.9,9-4.6,14-4.9c16.1-0.9,55.7-0.2,69.1,26.6C520,640,515,645.1,511.1,646z"/>
		<path class="st8" d="M502.4,646.5c-1.1,0.5-2.1,1.1-3.1,1.9c-7,5.1-21.3,14.6-37.2,19.6c-7.1-33,35.9-29,35.9-29L502.4,646.5z"/>
		<path class="st9" d="M525.5,729.8c-0.9,0.8-2,1.3-3.1,1.5c-3,0.6-9.4,2.3-12.4,6.8c-4,6-28-3-27-9c0.5-3.3-2.4-4.2-5.3-4.3
			c-3.3-0.2-6.2-2.1-7.8-5.1C463.3,707,449.7,675,471,656c27-24,48-13,48-13s0.5,0.4,1.4,1.2c5.6,4.8,25.6,23.5,25.9,46.6
			C546.5,703,541.2,716.5,525.5,729.8z"/>
		<path class="st8" d="M546.3,690.8c-5.5-0.6-18.6-3.3-29.3-14.8c-10.2-10.9-1.9-24.9,3.4-31.8C526,648.9,546,667.6,546.3,690.8z"/>
		<path class="st9" d="M614.2,684.5c-0.7,0.4-1.3,1-1.7,1.7c-2.8,5.1-16.7,24.3-61.3,9.2c-0.8-0.3-1.6-0.7-2.3-1.2
			c-5.7-4-30.5-23.5-27.9-57.2l2-9c0,0,8.5-4.1,20.6-7.4c13.8-3.8,32.1-6.5,47.6-0.8C607,625.6,619.9,640,622,671
			C622,671,622.9,680.2,614.2,684.5z"/>
		<path class="st8" d="M591.2,619.8C574.4,657.5,532,627,532,627s4.8-2.8,11.6-6.4C557.4,616.8,575.7,614.1,591.2,619.8z"/>
		<path class="st9" d="M604,605c0,0-16,37-77,23l-8-8c0,0,0-1.3,0.1-3.5l0,0c1.8-1.7,44.5-34.7,13.1-53.3c3.9-6.9,9-13,15.6-17.2
			c7.8-5,17.7-7.6,30.2-5.9C578,540,619,542,604,605z"/>
		<path class="st10" d="M498.6,612c0,0-8.6-42.9,16.1-7.5c0,0,24.7-62.2,12.9,3.2c0,0,27.9-17.2,10.7,11.8c0,0,59,9.7,0,11.8
			c0,0,30,25.7-3.2,18.2c0,0,9.7,57.9-12.9,2.1c0,0-18.2,30-22.5-4.3c0,0-35.4,33.3-8.6-8.6c0,0-21.5-8.6,0-18.2
			C491.1,620.6,449.2,587.3,498.6,612z"/>
		<path class="st11" d="M498.2,642.9c0,0-15.8-6.5-4.6-22.3c0,0,5.6-26,28.8-13c0,0,20.5,1.9,14.9,19.5c0,0,5.6,17.7-10.2,22.3
			C527,649.4,507.5,660.6,498.2,642.9z"/>
		<path class="st12" d="M523.4,628.1c-0.8,2.4,0,2.4-2.4,4.9c-1.2,1.2-3.4,2.4-4.9,2.4c-1.8,0-4.9-2.4-6.1-2.4s-3.1-3.1-2.4-4.9
			c0.7-2.2,2.2-3.4,3.7-4.9c1.2-1.2,2.5-1.9,4.3-2.4c2.1-0.6,4,0.4,5.5,1.2C523.4,623.2,524.1,626.2,523.4,628.1z"/>
	</g>
	<g id="Flower_1_">
		<path class="st8" d="M357.7,528.2L357.7,528.2L357.7,528.2l32.9-29.6c0.2-0.1,0.4-0.2,0.6-0.3
			C403.7,525.5,359.7,527.9,357.7,528.2z"/>
		<path class="st9" d="M382.5,508.6c-0.7,0.5-1.2,1.1-1.6,1.8c-2.5,4.5-12.5,21.8-22,23.1c-6.2,0.8-9.5-4.1-11.1-8.4
			c-0.7-2-1.2-3.8-1.4-5c-0.2-0.9-0.5-1.7-1.1-2.4c-3.2-4-14.4-19-16.4-35.6c-1-8,0.2-16.4,5.5-24c16.6-24.1,35.5-16.5,37.3-12.1
			c0.4,0.9,0.8,1.7,1.6,2.4c5.8,5.1,25.8,25,18.6,48.4c-0.1,0.4-0.2,0.8-0.3,1.2C391.1,500.6,390.9,502.8,382.5,508.6z"/>
		<path class="st8" d="M347.8,525.1c-1.2-3.3-1.6-6.3-1.6-6.3s-15-17.3-17.3-36.7c10,0.9,19,6.4,24,15.4
			C357.5,506.1,350.9,520.1,347.8,525.1z"/>
		<path class="st9" d="M338.6,544.3c-1.3-0.5-2.5-0.9-3.9-1.1c-0.9-0.2-1.9-0.3-2.8-0.3c-6.9-0.1-20.5-1-33.3-5.3
			c-10.5-3.5-20.5-9.3-25.9-18.8c-10.4-18.2-6-25.4-2.5-28c1.9-1.4,3.6-3.1,5-5.1c3.7-5.6,12.7-15.7,29.3-16.1
			c4.1-0.1,8.2,1,11.7,3.2c11.3,6.8,37.6,25.6,34.2,49.9C347.4,544.5,341.7,545.6,338.6,544.3z"/>
		<path class="st8" d="M332.6,540.7c-1-0.1-1.9-0.2-2.9-0.2c-7.1,0.2-21.1-0.1-34.1-4c10.5-25.5,37.6-2.9,37.6-2.9L332.6,540.7z"/>
		<path class="st9" d="M309.5,607.4c-0.9,0.1-1.9-0.1-2.8-0.4c-2.3-1-7.4-2.8-11.5-1.2c-5.5,2.2-17.5-15-14-18.6
			c1.9-1.9,0.3-3.9-1.6-5.3c-2.1-1.6-3.2-4.3-2.9-7c1.4-11.6,7.1-39.5,30.2-42.3c29.3-3.7,38.3,13.5,38.3,13.5s0.2,0.5,0.4,1.5
			c1.5,5.8,6.3,27.6-4.2,43.4C336,599.1,326.3,605.8,309.5,607.4z"/>
		<path class="st8" d="M341.6,590.8c-3.4-3-11-10.9-12.9-23.6c-1.8-12,10.3-17.7,17-19.8C347.3,553.2,352.1,575.1,341.6,590.8z"/>
		<path class="st9" d="M390.2,618c-0.7-0.1-1.4,0-2,0.3c-4.2,2.1-22.5,8.6-45.5-22.2c-0.4-0.6-0.7-1.2-1-1.8c-2-5.3-9.7-30,7.7-51.4
			l5.5-5.1c0,0,7.7,1.2,17.3,4.5c11,3.8,24.6,10.5,32.4,21.5c8,11.2,9.9,26.9-3,48.7C401.7,612.6,398.1,619.2,390.2,618z"/>
		<path class="st8" d="M404.7,563.8c-28.8,17.7-43.2-22.6-43.2-22.6s4.5,0.3,10.8,1C383.3,546.1,396.9,552.8,404.7,563.8z"/>
		<path class="st9" d="M420.2,559.8c0,0-27.9,17.5-62.5-20.2l-1.7-9.1c0,0,0.6-0.9,1.7-2.3l0,0c1.9-0.3,46-2.7,33.5-29.8
			c5.8-2.8,12.1-4.5,18.5-4.4c7.6,0.2,15.4,3.1,23.1,10C432.8,504,459.4,524.3,420.2,559.8z"/>
		<path class="st10" d="M346,515.7c0,0,14.1-32.9,14.3,2.4c0,0,45.4-30.5,7.2,8.1c0,0,26.7,1.4,1.8,12.9c0,0,35.2,33.8-5.5,7.9
			c0,0,8.3,31.2-10.6,10.8c0,0-20.3,43.5-9.7-4.5c0,0-26.2,11.8-13.2-13.3c0,0-39.2,6-1.8-9.8c0,0-10.5-15.7,8.4-12.3
			C336.9,518,324.2,476.2,346,515.7z"/>
		<path class="st11" d="M331.4,536.3c0,0-7.6-11.7,7.2-17.2c0,0,15.8-14.9,25.4,4.6c0,0,12.9,10.7,1,20c0,0-4.4,14.5-17.2,10.3
			C347.8,554,329.4,552.5,331.4,536.3z"/>
		<path class="st12" d="M355.2,538c-1.7,1.3-1.1,1.6-3.9,2.2c-1.4,0.3-3.4,0.1-4.4-0.6c-1.2-0.9-2.2-3.9-3-4.5s-0.6-3.5,0.6-4.4
			c1.5-1.2,3.1-1.3,4.7-1.6c1.4-0.3,2.6-0.1,4,0.3c1.7,0.6,2.5,2.1,3.1,3.4C357.5,534.7,356.6,537,355.2,538z"/>
	</g>
	<g id="Flower_2_">
		<path class="st8" d="M315,795L315,795L315,795l-41,40.7c-0.2,0.1-0.5,0.3-0.7,0.4C255.1,801.6,312.5,795.6,315,795z"/>
		<path class="st9" d="M284,822.1c0.8-0.7,1.5-1.5,2-2.5c2.9-6.1,14.9-29.3,27.2-31.5c8-1.5,12.6,4.7,15.1,10.3
			c1.1,2.5,1.8,4.9,2.1,6.4c0.3,1.1,0.8,2.1,1.6,3c4.5,5,20.1,23.9,23.8,45.4c1.8,10.4,0.8,21.4-5.6,31.7
			c-20,32.5-45.2,23.8-47.8,18.2c-0.5-1.1-1.2-2.2-2.2-3c-7.9-6.3-35.2-31-27.4-62c0.1-0.5,0.2-1.1,0.3-1.6
			C273.3,833.2,273.4,830.4,284,822.1z"/>
		<path class="st8" d="M328.2,798.4c1.8,4.2,2.5,8.1,2.5,8.1s20.7,21.5,25,46.7c-13.1-0.5-25.2-7.1-32.3-18.6
			C316.7,823.8,324.4,805.2,328.2,798.4z"/>
		<path class="st9" d="M338.8,772.7c1.7,0.6,3.4,1,5.1,1.2c1.2,0.2,2.5,0.2,3.7,0.2c9-0.3,26.8,0,43.8,4.7
			c13.9,3.9,27.3,10.8,35,22.8c14.7,23.1,9.5,32.7,5,36.4c-2.4,2-4.6,4.3-6.1,7c-4.5,7.6-15.5,21.4-37.2,22.9
			c-5.4,0.4-10.7-0.8-15.4-3.4c-15.1-8.2-50.7-31-47.8-62.8C327.4,773.1,334.7,771.3,338.8,772.7z"/>
		<path class="st8" d="M347,777.1c1.3,0.1,2.5,0.1,3.8,0c9.3-0.7,27.5-1.3,44.8,3c-12.1,34-48.8,6.2-48.8,6.2L347,777.1z"/>
		<path class="st9" d="M372.7,688.5c1.2-0.2,2.5,0,3.6,0.4c3,1.2,9.8,3.2,15,0.8c7-3.2,23.8,18.4,19.5,23.3
			c-2.3,2.6-0.1,5.1,2.4,6.9c2.9,2,4.5,5.4,4.2,9c-1,15.2-6.6,51.9-36.6,57.2c-38,6.7-50.9-15.1-50.9-15.1s-0.2-0.7-0.6-1.9
			c-2.4-7.4-10.1-35.6,2.6-56.9C338.6,701.1,350.9,691.8,372.7,688.5z"/>
		<path class="st8" d="M331.9,712.2c4.7,3.7,15,13.4,18.3,29.9c3.1,15.6-12.3,23.7-20.9,27C327,761.7,319.3,733.5,331.9,712.2z"/>
		<path class="st9" d="M266.8,680c0.9,0.1,1.8-0.1,2.5-0.6c5.4-3,28.8-12.7,60.8,26c0.6,0.7,1,1.5,1.4,2.3
			c2.9,6.8,14.5,38.5-6.7,67.6l-6.9,7.1c0,0-10.1-1-22.9-4.8c-14.6-4.3-32.8-12.1-43.7-26c-11.1-14.1-14.7-34.5,0.7-63.8
			C252.1,687.8,256.4,679,266.8,680z"/>
		<path class="st8" d="M251.4,751.6c36.4-24.9,57.8,26.6,57.8,26.6s-5.9-0.1-14.2-0.7C280.4,773.3,262.3,765.5,251.4,751.6z"/>
		<path class="st9" d="M231.5,757.9c0,0,35.3-24.6,82.8,22.2l2.8,11.7c0,0-0.7,1.2-2,3.2l-0.1,0c-2.5,0.5-59.9,6.5-41.7,41.1
			c-7.4,4-15.5,6.7-23.8,6.9c-9.9,0.2-20.3-3-30.7-11.6C218.7,831.5,182.6,806.7,231.5,757.9z"/>
		<path class="st10" d="M331.1,810.6c0,0-16.2,43.8-18.8-2.2c0,0-57.3,42.7-9.9-10.1c0,0-34.9,0-3.1-16.7c0,0-48.2-41.8,6.6-10.7
			c0,0-12.9-40.2,13.1-14.8c0,0,23.7-58,12.9,5.3c0,0,33.4-17.1,18.1,16.5c0,0,50.8-10.4,3,12.6c0,0,14.7,19.8-10.2,16.6
			C342.8,807,362.1,860.6,331.1,810.6z"/>
		<path class="st11" d="M348.8,782.7c0,0,10.7,14.8-8.3,22.9c0,0-19.6,20.5-33.5-4.3c0,0-17.5-13.1-2.6-26.1c0,0,4.8-19.2,21.8-14.5
			C326.3,760.7,350.3,761.5,348.8,782.7z"/>
		<path class="st12" d="M317.6,782c2.1-1.8,1.4-2.2,5-3.1c1.8-0.4,4.5-0.3,5.8,0.5c1.7,1,3.1,5,4.2,5.6c1.1,0.7,1.1,4.5-0.5,5.8
			c-1.9,1.6-3.9,1.9-6.1,2.4c-1.8,0.4-3.4,0.4-5.3-0.2c-2.3-0.6-3.3-2.6-4.3-4.2C314.8,786.5,315.9,783.4,317.6,782z"/>
	</g>
	<g id="Flower_3_">
		<path class="st8" d="M478.3,430.5L478.3,430.5L478.3,430.5l-21.6-22.9c-0.1-0.1-0.1-0.3-0.2-0.4
			C475.5,397.8,478,429.1,478.3,430.5z"/>
		<path class="st9" d="M463.9,413.2c0.3,0.5,0.8,0.8,1.3,1.1c3.3,1.7,15.8,8.5,16.8,15.2c0.7,4.4-2.7,6.8-5.8,8.1
			c-1.4,0.6-2.7,0.9-3.5,1.1c-0.6,0.1-1.2,0.4-1.7,0.8c-2.8,2.4-13.3,10.6-25,12.3c-5.7,0.8-11.7,0.1-17.2-3.5
			c-17.4-11.3-12.4-25-9.3-26.3c0.6-0.3,1.2-0.6,1.7-1.1c3.5-4.2,17.3-18.8,34.1-14.1c0.3,0.1,0.6,0.1,0.9,0.2
			C458.1,407.3,459.6,407.4,463.9,413.2z"/>
		<path class="st8" d="M476.3,437.6c-2.3,0.9-4.4,1.2-4.4,1.2s-12,11-25.8,13c0.4-7.2,4.2-13.6,10.6-17.3
			C462.6,431,472.6,435.5,476.3,437.6z"/>
		<path class="st9" d="M490.1,443.8c-0.3,0.9-0.6,1.8-0.7,2.8c-0.1,0.7-0.2,1.3-0.2,2c0,4.9-0.3,14.6-3.1,23.8
			c-2.3,7.5-6.2,14.7-12.9,18.8c-12.8,7.7-17.9,4.7-19.9,2.3c-1.1-1.3-2.3-2.5-3.7-3.4c-4.1-2.5-11.4-8.7-12-20.6
			c-0.1-2.9,0.6-5.8,2.1-8.4c4.7-8.1,17.5-27.2,34.9-25.2C490.1,437.5,491,441.6,490.1,443.8z"/>
		<path class="st8" d="M487.6,448.2c-0.1,0.7-0.1,1.4-0.1,2.1c0.3,5.1,0.3,15-2.2,24.4c-18.3-7-2.8-26.7-2.8-26.7L487.6,448.2z"/>
		<path class="st9" d="M535.5,463.4c0.1,0.7,0,1.4-0.3,2c-0.7,1.6-1.9,5.3-0.6,8.2c1.7,3.9-10.3,12.7-13,10.3
			c-1.4-1.3-2.8-0.1-3.8,1.2c-1.1,1.6-3,2.4-4.9,2.2c-8.3-0.8-28.2-4.3-30.7-20.7c-3.1-20.8,8.9-27.5,8.9-27.5s0.4-0.1,1-0.3
			c4.1-1.2,19.5-5,30.9,2.2C529.2,444.6,534.1,451.5,535.5,463.4z"/>
		<path class="st8" d="M523.2,440.8c-2.1,2.5-7.5,8-16.5,9.6c-8.5,1.5-12.8-7-14.4-11.8C496.3,437.5,511.8,433.6,523.2,440.8z"/>
		<path class="st9" d="M541.6,405.8c-0.1,0.5,0,1,0.3,1.4c1.6,3,6.5,15.8-15,32.8c-0.4,0.3-0.8,0.6-1.3,0.7
			c-3.7,1.5-21.2,7.4-36.7-4.6l-3.8-3.8c0,0,0.7-5.5,2.9-12.4c2.5-7.9,7-17.7,14.7-23.5c7.8-5.9,19-7.5,34.7,1.2
			C537.5,397.7,542.3,400.1,541.6,405.8z"/>
		<path class="st8" d="M502.8,396.4c13.1,20.2-15.3,31.2-15.3,31.2s0.1-3.2,0.5-7.7C490.6,412,495.1,402.2,502.8,396.4z"/>
		<path class="st9" d="M499.6,385.5c0,0,13,19.5-13.2,44.8l-6.4,1.4c0,0-0.6-0.4-1.7-1.2l0,0c-0.2-1.4-2.8-32.7-21.8-23.3
			c-2.1-4.1-3.5-8.5-3.4-13.1c0-5.4,1.9-11,6.7-16.6C459.7,377.6,473.7,358.2,499.6,385.5z"/>
		<path class="st10" d="M469.6,439.1c0,0-23.6-9.4,1.4-10.2c0,0-22.5-31.8,5.7-5.3c0,0,0.5-19,9.2-1.5c0,0,23.4-25.7,5.8,3.7
			c0,0,22.1-6.5,7.9,7.4c0,0,31.3,13.7-3,7c0,0,8.9,18.4-9.2,9.6c0,0,5,27.8-6.9,1.5c0,0-11,7.7-8.9-5.8
			C471.4,445.5,441.9,455.3,469.6,439.1z"/>
		<path class="st11" d="M484.5,449.1c0,0-8.2,5.6-12.4-4.8c0,0-10.9-11,2.8-18.2c0,0,7.4-9.4,14.2-1.1c0,0,10.4,2.9,7.6,12.1
			C496.9,437.1,496.1,450.2,484.5,449.1z"/>
		<path class="st12" d="M485.3,432.1c0.9,1.2,1.2,0.8,1.6,2.7c0.2,1,0.1,2.4-0.4,3.2c-0.6,0.9-2.7,1.6-3.1,2.2
			c-0.4,0.6-2.5,0.5-3.2-0.4c-0.8-1.1-1-2.2-1.2-3.3c-0.2-1-0.2-1.8,0.2-2.9c0.4-1.2,1.5-1.8,2.3-2.3
			C482.9,430.5,484.6,431.2,485.3,432.1z"/>
	</g>
</g>
</svg>
